# xmcd
#
# Track frame offsets:
#	150
#	19699
#	37463
#	60338
#	79888
#	106122
#
# Disc length: 1672 seconds
# Revision: 0
# Processed by: cddbd v1.5.2PL0 Copyright (c) Steve Scherf et al.
# Submitted via: dBpowerAMP V12.0
#
DISCID=44068606
DTITLE=The Batture Boys - Muddy Water
DYEAR=2016
DGENRE=Blues
TTITLE0=Rabbit Hole Blues
TTITLE1=Deep Water Horizon
TTITLE2=Muddy Water
TTITLE3=The Mighty Flood
TTITLE4=Send the Bones Back Home
TTITLE5=You Had a Problem
EXTD=
EXTT0=
EXTT1=
EXTT2=
EXTT3=
EXTT4=
EXTT5=
PLAYORDER=
